ffmpeg started on 2025-05-24 at 15:46:45
Report written to "D:\Convert\FFMetrics\reports\psnr_report-6.txt"
Log level: 32
Command line:
ffmpeg -hide_banner -nostdin -i "G:\\\xc0\xed\xe8\xec\xe5\\\xce\xed\xe3\xee\xe8\xed\xe3\xe8\\!_33_\xc7\xe8\xec\xe0_2024\\DreamCast\\\xd1\xf2\xe0\xed\xee\xe2\xff\xf1\xfc \xe2\xee\xeb\xf8\xe5\xe1\xed\xe8\xf6\xe5\xe9\\[DC] Mahou Shoujo ni Akogarete - 10_Telegram_HEVC.mkv" -i "G:\\\xc0\xed\xe8\xec\xe5\\\xce\xed\xe3\xee\xe8\xed\xe3\xe8\\!_33_\xc7\xe8\xec\xe0_2024\\DreamCast\\\xd1\xf2\xe0\xed\xee\xe2\xff\xf1\xfc \xe2\xee\xeb\xf8\xe5\xe1\xed\xe8\xf6\xe5\xe9\\[DC] Mahou Shoujo ni Akogarete - 10_Telegram.mp4" -lavfi "[0:v]settb=AVTB,setpts=PTS-STARTPTS,format=pix_fmts=yuv420p10,fps=24000/1001,scale=1920:1080:flags=bicubic[main];[1:v]settb=AVTB,setpts=PTS-STARTPTS,format=pix_fmts=yuv420p,fps=24000/1001,scale=1920:1080:flags=bicubic[ref];[main][ref]psnr=eof_action=endall:stats_file='D\\:/Convert/FFMetrics/logs/psnr_logfile-6.txt'" -f null -
Input #0, matroska,webm, from 'G:\Аниме\Онгоинги\!_33_Зима_2024\DreamCast\Становясь волшебницей\[DC] Mahou Shoujo ni Akogarete - 10_Telegram_HEVC.mkv':
  Metadata:
    COMPATIBLE_BRANDS: isomiso2avc1mp41
    MAJOR_BRAND     : isom
    MINOR_VERSION   : 512
    ENCODER         : Lavf61.7.100
  Duration: 00:23:47.93, start: -0.021000, bitrate: 1110 kb/s
  Stream #0:0: Video: hevc (Main 10), yuv420p10le(tv, bt709, progressive), 1920x1080 [SAR 1:1 DAR 16:9], 23.98 fps, 23.98 tbr, 1k tbn (default)
      Metadata:
        HANDLER_NAME    : VideoHandler
        VENDOR_ID       : [0][0][0][0]
        ENCODER         : Lavc61.19.100 libx265
        BPS             : 912570
        DURATION        : 00:23:47.801708333
        NUMBER_OF_FRAMES: 34233
        NUMBER_OF_BYTES : 162871158
        _STATISTICS_WRITING_APP: mkvpropedit v66.0.0 ('Josie') 64-bit
        _STATISTICS_WRITING_DATE_UTC: 2025-05-24 10:43:03
        _STATISTICS_TAGS: BPS DURATION NUMBER_OF_FRAMES NUMBER_OF_BYTES
  Stream #0:1: Audio: aac (LC), 48000 Hz, stereo, fltp (default)
      Metadata:
        HANDLER_NAME    : SoundHandler
        VENDOR_ID       : [0][0][0][0]
        ENCODER         : Lavc61.19.100 aac
        BPS             : 193634
        DURATION        : 00:23:47.925000000
        NUMBER_OF_FRAMES: 66935
        NUMBER_OF_BYTES : 34561910
        _STATISTICS_WRITING_APP: mkvpropedit v66.0.0 ('Josie') 64-bit
        _STATISTICS_WRITING_DATE_UTC: 2025-05-24 10:43:03
        _STATISTICS_TAGS: BPS DURATION NUMBER_OF_FRAMES NUMBER_OF_BYTES
Input #1, mov,mp4,m4a,3gp,3g2,mj2, from 'G:\Аниме\Онгоинги\!_33_Зима_2024\DreamCast\Становясь волшебницей\[DC] Mahou Shoujo ni Akogarete - 10_Telegram.mp4':
  Metadata:
    major_brand     : isom
    minor_version   : 512
    compatible_brands: isomiso2avc1mp41
    encoder         : Lavf60.16.100
  Duration: 00:23:47.87, start: 0.000000, bitrate: 3462 kb/s
  Stream #1:0[0x1](und): Video: h264 (High) (avc1 / 0x31637661), yuv420p(tv, bt709, progressive), 1920x1080 [SAR 1:1 DAR 16:9], 3315 kb/s, 23.98 fps, 23.98 tbr, 24k tbn (default)
      Metadata:
        handler_name    : VideoHandler
        vendor_id       : [0][0][0][0]
        encoder         : Lavc60.31.102 h264_qsv
  Stream #1:1[0x2](und): Audio: aac (HE-AACv2) (mp4a / 0x6134706D), 48000 Hz, stereo, fltp, 144 kb/s (default)
      Metadata:
        handler_name    : SoundHandler
        vendor_id       : [0][0][0][0]
Stream mapping:
  Stream #0:0 (hevc) -> settb:default
  Stream #1:0 (h264) -> settb:default
  psnr:default -> Stream #0:0 (wrapped_avframe)
  Stream #0:1 -> #0:1 (aac (native) -> pcm_s16le (native))
Output #0, null, to 'pipe:':
  Metadata:
    COMPATIBLE_BRANDS: isomiso2avc1mp41
    MAJOR_BRAND     : isom
    MINOR_VERSION   : 512
    encoder         : Lavf61.7.100
  Stream #0:0: Video: wrapped_avframe, yuv420p10le(tv, bt709, progressive), 1920x1080 [SAR 1:1 DAR 16:9], q=2-31, 200 kb/s, 23.98 fps, 23.98 tbn
      Metadata:
        encoder         : Lavc61.19.100 wrapped_avframe
  Stream #0:1: Audio: pcm_s16le, 48000 Hz, stereo, s16, 1536 kb/s (default)
      Metadata:
        HANDLER_NAME    : SoundHandler
        VENDOR_ID       : [0][0][0][0]
        _STATISTICS_TAGS: BPS DURATION NUMBER_OF_FRAMES NUMBER_OF_BYTES
        BPS             : 193634
        DURATION        : 00:23:47.925000000
        NUMBER_OF_FRAMES: 66935
        NUMBER_OF_BYTES : 34561910
        _STATISTICS_WRITING_APP: mkvpropedit v66.0.0 ('Josie') 64-bit
        _STATISTICS_WRITING_DATE_UTC: 2025-05-24 10:43:03
        encoder         : Lavc61.19.100 pcm_s16le
frame=  197 fps=0.0 q=-0.0 size=N/A time=00:00:08.21 bitrate=N/A speed=15.9x    frame=  449 fps=436 q=-0.0 size=N/A time=00:00:18.72 bitrate=N/A speed=18.2x    frame=  734 fps=472 q=-0.0 size=N/A time=00:00:30.61 bitrate=N/A speed=19.7x    frame= 1022 fps=495 q=-0.0 size=N/A time=00:00:42.62 bitrate=N/A speed=20.6x    frame= 1280 fps=497 q=-0.0 size=N/A time=00:00:53.38 bitrate=N/A speed=20.7x    frame= 1557 fps=501 q=-0.0 size=N/A time=00:01:04.93 bitrate=N/A speed=20.9x    frame= 1753 fps=485 q=-0.0 size=N/A time=00:01:13.11 bitrate=N/A speed=20.2x    frame= 1979 fps=480 q=-0.0 size=N/A time=00:01:22.54 bitrate=N/A speed=  20x    frame= 2203 fps=474 q=-0.0 size=N/A time=00:01:31.88 bitrate=N/A speed=19.8x    frame= 2419 fps=469 q=-0.0 size=N/A time=00:01:40.89 bitrate=N/A speed=19.6x    frame= 2662 fps=470 q=-0.0 size=N/A time=00:01:51.02 bitrate=N/A speed=19.6x    frame= 2846 fps=459 q=-0.0 size=N/A time=00:01:58.70 bitrate=N/A speed=19.2x    frame= 3011 fps=449 q=-0.0 size=N/A time=00:02:05.58 bitrate=N/A speed=18.7x    frame= 3217 fps=446 q=-0.0 size=N/A time=00:02:14.17 bitrate=N/A speed=18.6x    frame= 3377 fps=436 q=-0.0 size=N/A time=00:02:20.84 bitrate=N/A speed=18.2x    frame= 3553 fps=430 q=-0.0 size=N/A time=00:02:28.18 bitrate=N/A speed=  18x    frame= 3784 fps=432 q=-0.0 size=N/A time=00:02:37.82 bitrate=N/A speed=  18x    frame= 4064 fps=437 q=-0.0 size=N/A time=00:02:49.50 bitrate=N/A speed=18.2x    frame= 4339 fps=443 q=-0.0 size=N/A time=00:03:00.97 bitrate=N/A speed=18.5x    frame= 4599 fps=446 q=-0.0 size=N/A time=00:03:11.81 bitrate=N/A speed=18.6x    frame= 4832 fps=446 q=-0.0 size=N/A time=00:03:21.53 bitrate=N/A speed=18.6x    frame= 5081 fps=448 q=-0.0 size=N/A time=00:03:31.92 bitrate=N/A speed=18.7x    frame= 5355 fps=452 q=-0.0 size=N/A time=00:03:43.34 bitrate=N/A speed=18.8x    frame= 5616 fps=453 q=-0.0 size=N/A time=00:03:54.23 bitrate=N/A speed=18.9x    frame= 5895 fps=457 q=-0.0 size=N/A time=00:04:05.87 bitrate=N/A speed=19.1x    frame= 6169 fps=460 q=-0.0 size=N/A time=00:04:17.29 bitrate=N/A speed=19.2x    frame= 6431 fps=462 q=-0.0 size=N/A time=00:04:28.22 bitrate=N/A speed=19.3x    frame= 6712 fps=465 q=-0.0 size=N/A time=00:04:39.94 bitrate=N/A speed=19.4x    frame= 6979 fps=467 q=-0.0 size=N/A time=00:04:51.08 bitrate=N/A speed=19.5x    frame= 7279 fps=470 q=-0.0 size=N/A time=00:05:03.59 bitrate=N/A speed=19.6x    frame= 7515 fps=470 q=-0.0 size=N/A time=00:05:13.43 bitrate=N/A speed=19.6x    frame= 7769 fps=471 q=-0.0 size=N/A time=00:05:24.03 bitrate=N/A speed=19.6x    frame= 8030 fps=472 q=-0.0 size=N/A time=00:05:34.91 bitrate=N/A speed=19.7x    frame= 8285 fps=473 q=-0.0 size=N/A time=00:05:45.55 bitrate=N/A speed=19.7x    frame= 8531 fps=473 q=-0.0 size=N/A time=00:05:55.81 bitrate=N/A speed=19.7x    frame= 8802 fps=474 q=-0.0 size=N/A time=00:06:07.11 bitrate=N/A speed=19.8x    frame= 9081 fps=476 q=-0.0 size=N/A time=00:06:18.75 bitrate=N/A speed=19.8x    frame= 9358 fps=478 q=-0.0 size=N/A time=00:06:30.30 bitrate=N/A speed=19.9x    frame= 9659 fps=480 q=-0.0 size=N/A time=00:06:42.86 bitrate=N/A speed=  20x    frame= 9948 fps=482 q=-0.0 size=N/A time=00:06:54.91 bitrate=N/A speed=20.1x    frame=10208 fps=483 q=-0.0 size=N/A time=00:07:05.75 bitrate=N/A speed=20.1x    frame=10437 fps=482 q=-0.0 size=N/A time=00:07:15.30 bitrate=N/A speed=20.1x    frame=10721 fps=483 q=-0.0 size=N/A time=00:07:27.15 bitrate=N/A speed=20.2x    frame=11002 fps=485 q=-0.0 size=N/A time=00:07:38.87 bitrate=N/A speed=20.2x    frame=11296 fps=487 q=-0.0 size=N/A time=00:07:51.13 bitrate=N/A speed=20.3x    frame=11551 fps=487 q=-0.0 size=N/A time=00:08:01.77 bitrate=N/A speed=20.3x    frame=11803 fps=487 q=-0.0 size=N/A time=00:08:12.28 bitrate=N/A speed=20.3x    frame=12087 fps=488 q=-0.0 size=N/A time=00:08:24.12 bitrate=N/A speed=20.4x    frame=12364 fps=489 q=-0.0 size=N/A time=00:08:35.68 bitrate=N/A speed=20.4x    frame=12629 fps=490 q=-0.0 size=N/A time=00:08:46.73 bitrate=N/A speed=20.4x    frame=12920 fps=491 q=-0.0 size=N/A time=00:08:58.87 bitrate=N/A speed=20.5x    frame=13192 fps=492 q=-0.0 size=N/A time=00:09:10.21 bitrate=N/A speed=20.5x    frame=13469 fps=493 q=-0.0 size=N/A time=00:09:21.76 bitrate=N/A speed=20.6x    frame=13760 fps=494 q=-0.0 size=N/A time=00:09:33.90 bitrate=N/A speed=20.6x    frame=14033 fps=495 q=-0.0 size=N/A time=00:09:45.29 bitrate=N/A speed=20.6x    frame=14292 fps=495 q=-0.0 size=N/A time=00:09:56.09 bitrate=N/A speed=20.6x    frame=14565 fps=495 q=-0.0 size=N/A time=00:10:07.48 bitrate=N/A speed=20.7x    frame=14843 fps=496 q=-0.0 size=N/A time=00:10:19.07 bitrate=N/A speed=20.7x    frame=15112 fps=497 q=-0.0 size=N/A time=00:10:30.29 bitrate=N/A speed=20.7x    frame=15373 fps=497 q=-0.0 size=N/A time=00:10:41.18 bitrate=N/A speed=20.7x    frame=15629 fps=497 q=-0.0 size=N/A time=00:10:51.85 bitrate=N/A speed=20.7x    frame=15905 fps=497 q=-0.0 size=N/A time=00:11:03.37 bitrate=N/A speed=20.7x    frame=16185 fps=498 q=-0.0 size=N/A time=00:11:15.04 bitrate=N/A speed=20.8x    frame=16448 fps=498 q=-0.0 size=N/A time=00:11:26.01 bitrate=N/A speed=20.8x    frame=16722 fps=499 q=-0.0 size=N/A time=00:11:37.44 bitrate=N/A speed=20.8x    frame=16996 fps=499 q=-0.0 size=N/A time=00:11:48.87 bitrate=N/A speed=20.8x    frame=17253 fps=499 q=-0.0 size=N/A time=00:11:59.59 bitrate=N/A speed=20.8x    frame=17484 fps=499 q=-0.0 size=N/A time=00:12:09.22 bitrate=N/A speed=20.8x    frame=17744 fps=499 q=-0.0 size=N/A time=00:12:20.07 bitrate=N/A speed=20.8x    frame=18005 fps=499 q=-0.0 size=N/A time=00:12:30.95 bitrate=N/A speed=20.8x    frame=18254 fps=498 q=-0.0 size=N/A time=00:12:41.34 bitrate=N/A speed=20.8x    frame=18520 fps=499 q=-0.0 size=N/A time=00:12:52.43 bitrate=N/A speed=20.8x    frame=18767 fps=499 q=-0.0 size=N/A time=00:13:02.74 bitrate=N/A speed=20.8x    frame=19051 fps=499 q=-0.0 size=N/A time=00:13:14.58 bitrate=N/A speed=20.8x    frame=19319 fps=499 q=-0.0 size=N/A time=00:13:25.76 bitrate=N/A speed=20.8x    frame=19588 fps=500 q=-0.0 size=N/A time=00:13:36.98 bitrate=N/A speed=20.8x    frame=19882 fps=501 q=-0.0 size=N/A time=00:13:49.24 bitrate=N/A speed=20.9x    frame=20122 fps=500 q=-0.0 size=N/A time=00:13:59.25 bitrate=N/A speed=20.9x    frame=20353 fps=499 q=-0.0 size=N/A time=00:14:08.88 bitrate=N/A speed=20.8x    frame=20577 fps=499 q=-0.0 size=N/A time=00:14:18.23 bitrate=N/A speed=20.8x    frame=20834 fps=499 q=-0.0 size=N/A time=00:14:28.95 bitrate=N/A speed=20.8x    frame=21087 fps=499 q=-0.0 size=N/A time=00:14:39.50 bitrate=N/A speed=20.8x    frame=21345 fps=498 q=-0.0 size=N/A time=00:14:50.26 bitrate=N/A speed=20.8x    frame=21632 fps=499 q=-0.0 size=N/A time=00:15:02.23 bitrate=N/A speed=20.8x    frame=21903 fps=500 q=-0.0 size=N/A time=00:15:13.53 bitrate=N/A speed=20.8x    frame=22114 fps=498 q=-0.0 size=N/A time=00:15:22.33 bitrate=N/A speed=20.8x    frame=22368 fps=498 q=-0.0 size=N/A time=00:15:32.93 bitrate=N/A speed=20.8x    frame=22596 fps=498 q=-0.0 size=N/A time=00:15:42.44 bitrate=N/A speed=20.8x    frame=22871 fps=498 q=-0.0 size=N/A time=00:15:53.91 bitrate=N/A speed=20.8x    frame=23135 fps=498 q=-0.0 size=N/A time=00:16:04.92 bitrate=N/A speed=20.8x    frame=23360 fps=498 q=-0.0 size=N/A time=00:16:14.30 bitrate=N/A speed=20.8x    frame=23521 fps=496 q=-0.0 size=N/A time=00:16:21.02 bitrate=N/A speed=20.7x    frame=23683 fps=494 q=-0.0 size=N/A time=00:16:27.77 bitrate=N/A speed=20.6x    frame=23868 fps=492 q=-0.0 size=N/A time=00:16:35.49 bitrate=N/A speed=20.5x    frame=24047 fps=491 q=-0.0 size=N/A time=00:16:42.96 bitrate=N/A speed=20.5x    frame=24270 fps=490 q=-0.0 size=N/A time=00:16:52.26 bitrate=N/A speed=20.4x    frame=24519 fps=490 q=-0.0 size=N/A time=00:17:02.64 bitrate=N/A speed=20.4x    frame=24773 fps=490 q=-0.0 size=N/A time=00:17:13.24 bitrate=N/A speed=20.4x    frame=25032 fps=490 q=-0.0 size=N/A time=00:17:24.04 bitrate=N/A speed=20.4x    frame=25229 fps=489 q=-0.0 size=N/A time=00:17:32.25 bitrate=N/A speed=20.4x    frame=25411 fps=488 q=-0.0 size=N/A time=00:17:39.85 bitrate=N/A speed=20.3x    frame=25674 fps=488 q=-0.0 size=N/A time=00:17:50.81 bitrate=N/A speed=20.4x    frame=25925 fps=488 q=-0.0 size=N/A time=00:18:01.28 bitrate=N/A speed=20.3x    frame=26140 fps=487 q=-0.0 size=N/A time=00:18:10.25 bitrate=N/A speed=20.3x    frame=26370 fps=487 q=-0.0 size=N/A time=00:18:19.84 bitrate=N/A speed=20.3x    frame=26592 fps=486 q=-0.0 size=N/A time=00:18:29.10 bitrate=N/A speed=20.3x    frame=26815 fps=486 q=-0.0 size=N/A time=00:18:38.40 bitrate=N/A speed=20.3x    frame=27065 fps=486 q=-0.0 size=N/A time=00:18:48.83 bitrate=N/A speed=20.3x    frame=27291 fps=485 q=-0.0 size=N/A time=00:18:58.26 bitrate=N/A speed=20.2x    frame=27534 fps=485 q=-0.0 size=N/A time=00:19:08.39 bitrate=N/A speed=20.2x    frame=27786 fps=485 q=-0.0 size=N/A time=00:19:18.90 bitrate=N/A speed=20.2x    frame=28040 fps=485 q=-0.0 size=N/A time=00:19:29.50 bitrate=N/A speed=20.2x    frame=28315 fps=486 q=-0.0 size=N/A time=00:19:40.97 bitrate=N/A speed=20.3x    frame=28560 fps=486 q=-0.0 size=N/A time=00:19:51.19 bitrate=N/A speed=20.3x    frame=28819 fps=486 q=-0.0 size=N/A time=00:20:01.99 bitrate=N/A speed=20.3x    frame=29062 fps=486 q=-0.0 size=N/A time=00:20:12.12 bitrate=N/A speed=20.3x    frame=29279 fps=485 q=-0.0 size=N/A time=00:20:21.17 bitrate=N/A speed=20.2x    frame=29520 fps=485 q=-0.0 size=N/A time=00:20:31.23 bitrate=N/A speed=20.2x    frame=29756 fps=485 q=-0.0 size=N/A time=00:20:41.07 bitrate=N/A speed=20.2x    frame=29974 fps=484 q=-0.0 size=N/A time=00:20:50.16 bitrate=N/A speed=20.2x    frame=30217 fps=484 q=-0.0 size=N/A time=00:21:00.30 bitrate=N/A speed=20.2x    frame=30495 fps=484 q=-0.0 size=N/A time=00:21:11.89 bitrate=N/A speed=20.2x    frame=30763 fps=485 q=-0.0 size=N/A time=00:21:23.07 bitrate=N/A speed=20.2x    frame=31008 fps=485 q=-0.0 size=N/A time=00:21:33.29 bitrate=N/A speed=20.2x    frame=31239 fps=484 q=-0.0 size=N/A time=00:21:42.92 bitrate=N/A speed=20.2x    frame=31467 fps=484 q=-0.0 size=N/A time=00:21:52.43 bitrate=N/A speed=20.2x    frame=31676 fps=483 q=-0.0 size=N/A time=00:22:01.15 bitrate=N/A speed=20.2x    frame=31920 fps=483 q=-0.0 size=N/A time=00:22:11.33 bitrate=N/A speed=20.2x    frame=32185 fps=483 q=-0.0 size=N/A time=00:22:22.38 bitrate=N/A speed=20.2x    frame=32456 fps=484 q=-0.0 size=N/A time=00:22:33.68 bitrate=N/A speed=20.2x    frame=32694 fps=484 q=-0.0 size=N/A time=00:22:43.61 bitrate=N/A speed=20.2x    frame=32943 fps=484 q=-0.0 size=N/A time=00:22:53.99 bitrate=N/A speed=20.2x    frame=33186 fps=483 q=-0.0 size=N/A time=00:23:04.13 bitrate=N/A speed=20.2x    frame=33418 fps=483 q=-0.0 size=N/A time=00:23:13.80 bitrate=N/A speed=20.2x    frame=33656 fps=483 q=-0.0 size=N/A time=00:23:23.73 bitrate=N/A speed=20.1x    frame=33880 fps=483 q=-0.0 size=N/A time=00:23:33.07 bitrate=N/A speed=20.1x    frame=34149 fps=483 q=-0.0 size=N/A time=00:23:44.29 bitrate=N/A speed=20.1x    [Parsed_psnr_10 @ 00000173c6b83600] PSNR y:48.002124 u:50.881523 v:50.464524 average:48.722836 min:40.395354 max:inf
[out#0/null @ 00000173b96e3b80] video:14709KiB audio:267740KiB subtitle:0KiB other streams:0KiB global headers:0KiB muxing overhead: unknown
frame=34233 fps=483 q=-0.0 Lsize=N/A time=00:23:47.80 bitrate=N/A speed=20.2x    
